<?xml version="1.0" encoding="utf-8"?>
<!-- Generator: Adobe Illustrator 25.0.1, SVG Export Plug-In . SVG Version: 6.00 Build 0)  -->
<svg version="1.0" id="Layer_1" xmlns="http://www.w3.org/2000/svg" xmlns:xlink="http://www.w3.org/1999/xlink" x="0px" y="0px"
	 viewBox="0 0 146.6 114.9" style="enable-background:new 0 0 146.6 114.9;" xml:space="preserve">
<style type="text/css">
	.st0{fill:url(#Path_29_1_);}
	.st1{fill:url(#Path_30_1_);}
	.st2{fill:#FFFFFF;stroke:#000000;stroke-width:0.515;stroke-linecap:round;}
	.st3{fill:#FFFFFF;}
	.st4{fill:url(#Path_33_1_);}
	.st5{fill:url(#Path_34_1_);}
	.st6{fill:url(#Path_35_1_);}
	.st7{fill:#8B1325;}
	.st8{fill:url(#Path_37_1_);}
</style>
<g id="McAfee_Secure">
	
		<linearGradient id="Path_29_1_" gradientUnits="userSpaceOnUse" x1="-563.9969" y1="117.4874" x2="-563.4639" y2="118.4474" gradientTransform="matrix(34.917 0 0 36.1299 19730.2383 -4202.0249)">
		<stop  offset="0" style="stop-color:#646567"/>
		<stop  offset="9.700001e-02" style="stop-color:#717274"/>
		<stop  offset="0.317" style="stop-color:#898B8D"/>
		<stop  offset="0.54" style="stop-color:#9A9B9D"/>
		<stop  offset="0.766" style="stop-color:#A4A5A7"/>
		<stop  offset="1" style="stop-color:#A7A8AA"/>
	</linearGradient>
	<path id="Path_29" class="st0" d="M40.5,75.6c0,0-19.5-6.6-17.2-33.6c5.6-1.5,11.4-2.4,17.2-2.5c5.9,0.1,11.7,0.9,17.3,2.5
		C60.1,68.9,40.5,75.6,40.5,75.6z"/>
	
		<linearGradient id="Path_30_1_" gradientUnits="userSpaceOnUse" x1="-565.1342" y1="117.7049" x2="-565.8262" y2="118.1459" gradientTransform="matrix(34.7402 0 0 36.1299 19677.041 -4202.0249)">
		<stop  offset="0" style="stop-color:#C6C7C8"/>
		<stop  offset="9.200000e-02" style="stop-color:#DCDDDD"/>
		<stop  offset="0.203" style="stop-color:#F0F0F0"/>
		<stop  offset="0.316" style="stop-color:#FBFBFB"/>
		<stop  offset="0.433" style="stop-color:#FFFFFF"/>
		<stop  offset="0.537" style="stop-color:#F6F7F7"/>
		<stop  offset="0.704" style="stop-color:#DFDFE0"/>
		<stop  offset="0.913" style="stop-color:#B9BABB"/>
		<stop  offset="1" style="stop-color:#A7A8AA"/>
	</linearGradient>
	<path id="Path_30" class="st1" d="M40.5,75.6c0,0-19.5-6.6-17.2-33.6c5.6-1.5,11.4-2.4,17.2-2.5c5.9,0.1,11.7,0.9,17.3,2.5L56,43.6
		L40.5,73.9C40.5,73.9,40.5,75.6,40.5,75.6z"/>
	<path id="Path_31" class="st2" d="M40.5,73.9c0,0-17.6-6-15.6-30.5c5.1-1.4,10.3-2.2,15.6-2.3c5.3,0.1,10.6,0.9,15.7,2.3
		C58.2,67.8,40.5,73.9,40.5,73.9z"/>
	<g id="Group_9">
		<path id="Path_32" class="st3" d="M40.5,73.9c0,0-17.6-6-15.6-30.5c5.1-1.4,10.3-2.2,15.6-2.3c5.3,0.1,10.6,0.9,15.7,2.3
			C58.2,67.8,40.5,73.9,40.5,73.9z"/>
	</g>
	
		<linearGradient id="Path_33_1_" gradientUnits="userSpaceOnUse" x1="-586.3964" y1="100.5529" x2="-587.1854" y2="101.0699" gradientTransform="matrix(32.1357 0 0 33.1899 18894.791 -3290.4968)">
		<stop  offset="0" style="stop-color:#4B4B4D"/>
		<stop  offset="1.300000e-02" style="stop-color:#4D4D4F"/>
		<stop  offset="0.253" style="stop-color:#67686A"/>
		<stop  offset="0.497" style="stop-color:#797A7C"/>
		<stop  offset="0.744" style="stop-color:#838486"/>
		<stop  offset="1" style="stop-color:#87888A"/>
	</linearGradient>
	<path id="Path_33" class="st4" d="M24.8,43.1h-0.2v0.2c-1,12.8,3.3,20.5,7.2,24.7c2.4,2.7,5.4,4.8,8.7,6.1l0.1,0.1h0.1
		c3.3-1.3,6.3-3.4,8.7-6.1c3.8-4.2,8.2-11.9,7.1-24.6v-0.3h-0.2c-5.1-1.4-10.4-2.1-15.7-2.2C35.3,41.1,30,41.8,24.8,43.1z
		 M40.8,41.2c5.1,0.1,10.3,0.9,15.3,2.2c0.1,1.2,0.1,2.7,0.1,3.8c0,10.3-3.8,16.8-7.2,20.5c-2.3,2.6-5.2,4.7-8.5,6
		c-3.2-1.3-6.1-3.4-8.5-6c-3.3-3.7-7.1-10.1-7.1-20.5c0-1.1,0.1-2.6,0.2-3.8C26.3,43.3,33.6,41.2,40.8,41.2z"/>
	
		<linearGradient id="Path_34_1_" gradientUnits="userSpaceOnUse" x1="-647.4645" y1="42.0522" x2="-646.6465" y2="42.6502" gradientTransform="matrix(26.5312 0 0 25.9404 17211.2168 -1042.7079)">
		<stop  offset="0" style="stop-color:#8B1325"/>
		<stop  offset="0.607" style="stop-color:#CB0233"/>
		<stop  offset="0.708" style="stop-color:#CB0233"/>
		<stop  offset="1" style="stop-color:#8A193F"/>
	</linearGradient>
	<path id="Path_34" class="st5" d="M40.5,70.8c0,0-14.8-5.4-13.1-25.9c0,0,6.5,0.5,13.1,0.5s13-0.5,13.2-0.5
		C55.4,65.4,40.5,70.8,40.5,70.8z"/>
	
		<radialGradient id="Path_35_1_" cx="-9796.0557" cy="-6482.9033" r="23.551" gradientTransform="matrix(0.979 0 0 0.979 -6.1527 -546.2408)" gradientUnits="userSpaceOnUse">
		<stop  offset="0" style="stop-color:#CB0233"/>
		<stop  offset="0.461" style="stop-color:#CB0233"/>
		<stop  offset="1" style="stop-color:#8A193F"/>
	</radialGradient>
	<path id="Path_35" class="st6" d="M40.5,69.1c0,0-12.8-4.7-11.3-22.4c0,0,5.6,0.4,11.3,0.4s11.2-0.4,11.4-0.4
		C53.4,64.3,40.5,69,40.5,69.1z"/>
	<path id="Path_36" class="st7" d="M53.7,44.9c-0.2,0-6.6,0.5-13.2,0.5s-13.1-0.5-13.1-0.5l1.8,1.8c0,0,5.6,0.4,11.3,0.4
		s11.2-0.5,11.4-0.5L53.7,44.9z"/>
	
		<linearGradient id="Path_37_1_" gradientUnits="userSpaceOnUse" x1="-996.3047" y1="42.6775" x2="-994.8568" y2="41.8245" gradientTransform="matrix(13.2363 0 0 25.9199 13210.9307 -1036.3635)">
		<stop  offset="0" style="stop-color:#8B1325"/>
		<stop  offset="0.607" style="stop-color:#CB0233"/>
		<stop  offset="0.708" style="stop-color:#CB0233"/>
		<stop  offset="1" style="stop-color:#8A193F"/>
	</linearGradient>
	<path id="Path_37" class="st8" d="M40.5,70.8c0,0-14.8-5.4-13.1-25.9l1.8,1.8c-1.4,17.7,11.3,22.4,11.3,22.4V70.8z"/>
	<g id="Group_11">
		<g id="Group_10">
			<path id="Path_38" class="st3" d="M32.6,62l2.1-13.8h3.5L42.6,62h-3.7L37,54.9L35.9,62H32.6z"/>
		</g>
	</g>
	<g id="Group_13">
		<g id="Group_12">
			<path id="Path_39" class="st3" d="M43.1,48.2h3.5l2,13.8h-3.3l-1.2-7.2l-1.2,5.6l-1.8-5.6C41.1,54.8,43.1,48.2,43.1,48.2z"/>
		</g>
	</g>
	<g id="Group_14">
		<path id="Path_40" d="M72.5,54.9h-2.6l-2.5-6.4l-0.9,6.4h-2.9L65.5,43h2.8L72.5,54.9z M70.6,48.8l2.1-5.8h2.9l1.7,11.9h-2.9
			l-0.8-6.4l-1.7,3.8L70.6,48.8z"/>
		<path id="Path_41" d="M88.1,52.8l-0.7,2h-2.9l4-11.9h3l3.9,11.9h-2.9l-0.7-2H88.1z M90,46.6l-1.2,3.8h2.3L90,46.6z"/>
		<path id="Path_42" d="M109.9,51.3h-5.6c0,1.2,0.6,1.8,1.6,1.8c0.5,0,1-0.2,1.3-0.7h2.5c-0.2,0.9-0.7,1.6-1.4,2.1s-1.5,0.7-2.4,0.7
			c-2.2,0.2-4.1-1.5-4.3-3.7v-0.6c-0.2-2.2,1.4-4.1,3.6-4.3h0.5c2.6,0,4.1,1.8,4.1,4.5C109.8,51.1,109.9,51.3,109.9,51.3z
			 M107.5,49.6c-0.1-0.7-0.8-1.3-1.5-1.3c-0.8,0-1.4,0.5-1.6,1.3H107.5z"/>
		<path id="Path_43" d="M119,51.3h-5.6c0,1.2,0.6,1.8,1.7,1.8c0.5,0,1-0.2,1.3-0.7h2.5c-0.2,0.9-0.7,1.6-1.4,2.1s-1.5,0.7-2.4,0.7
			c-2.2,0.2-4.2-1.5-4.3-3.7v-0.6c-0.2-2.2,1.4-4.1,3.6-4.3h0.6c2.6,0,4.1,1.8,4.1,4.5C119.1,51.1,119,51.3,119,51.3z M116.6,49.6
			c-0.1-0.7-0.8-1.3-1.5-1.3c-0.8,0-1.4,0.5-1.6,1.3H116.6z"/>
		<path id="Path_44" d="M119.4,45.2c0-1.1,0.9-2,2-2s2,0.9,2,2c0,1.1-0.9,2-2,2S119.4,46.4,119.4,45.2z M119.7,45.2
			c0,0.9,0.8,1.7,1.7,1.7c0.9,0,1.7-0.8,1.7-1.7c0-0.9-0.8-1.7-1.7-1.7C120.5,43.5,119.7,44.2,119.7,45.2z M122.4,46.3H122l-0.6-1
			H121v1h-0.3v-2.2h0.9c0.4,0,0.8,0.1,0.8,0.6c0,0.3-0.2,0.6-0.5,0.6h-0.2C121.7,45.3,122.4,46.3,122.4,46.3z M121,44.4V45h0.4
			c0.3,0,0.7,0,0.7-0.3s-0.2-0.3-0.5-0.3H121z"/>
	</g>
	<g id="Group_15">
		<path id="Path_45" d="M96.4,48.8h-1.5v-2h1.6v-0.9c0-2.4,1.1-3.2,3.2-3.2c0.5,0,0.9,0.1,1.3,0.1l-0.1,1.9
			c-0.3-0.1-0.5-0.1-0.8-0.1c-0.7,0-0.9,0.5-0.9,1.3v0.9h1.9v2h-2v6.1h-2.7C96.4,54.9,96.4,48.8,96.4,48.8z"/>
	</g>
	<g id="Group_16">
		<path id="Path_46" d="M69.5,60.6c-0.7-0.3-1.4-0.5-2.1-0.5c-0.9,0-2,0.3-2,1.5c0,2.1,5,1.6,5,5.3c0,2.4-1.9,3.4-4.2,3.4
			c-0.8,0-1.6-0.2-2.3-0.5l0.2-1.5c0.8,0.3,1.6,0.5,2.4,0.6c0.9,0,2.2-0.5,2.2-1.9c0-2.5-4.9-1.9-4.9-5.3c0-2,1.7-3,3.7-3
			c0.8,0,1.7,0.2,2.5,0.4C70,59.1,69.5,60.6,69.5,60.6z"/>
		<path id="Path_47" d="M72.6,58.9h6.5v1.4h-4.8v3.3h4.4V65h-4.4v3.7h4.8v1.4h-6.5V58.9z"/>
		<path id="Path_48" d="M89,60.7c-0.7-0.4-1.5-0.6-2.4-0.6c-2.4,0-4.4,1.9-4.4,4.3c0,2.4,1.9,4.4,4.3,4.4c0.9,0,1.7-0.2,2.5-0.6
			l0.1,1.5c-0.8,0.3-1.7,0.5-2.6,0.5c-3.6,0-6.1-2.3-6.1-5.9c0-3.4,2.6-5.8,6.1-5.8c0.9,0,1.8,0.1,2.6,0.5C89.1,59,89,60.7,89,60.7z
			"/>
		<path id="Path_49" d="M99.5,65.4c0,3.2-1.7,4.8-4.5,4.8s-4.5-1.7-4.5-4.8v-6.5h1.6v6.4c0,2.1,0.7,3.6,2.8,3.6s2.8-1.5,2.8-3.6
			v-6.4h1.7C99.4,58.9,99.5,65.4,99.5,65.4z"/>
		<path id="Path_50" d="M102.1,58.9h2.8c2.3,0,4.5,0.4,4.5,3c0,1.3-1.1,2.4-2.4,2.5c0.5,0.2,0.7,0.4,1.1,1.1l2.2,4.5h-1.9l-1.8-3.9
			c-0.5-1.1-1.1-1.1-1.9-1.1h-1v5h-1.6V58.9z M103.7,63.7h1.4c1.6,0,2.5-0.7,2.5-1.8c0-1-0.8-1.7-2.3-1.7h-1.6V63.7z"/>
		<path id="Path_51" d="M112.2,58.9h6.5v1.4h-4.8v3.3h4.4V65h-4.4v3.7h4.8v1.4h-6.5V58.9z"/>
	</g>
	<path id="Path_52" d="M83.9,49.3c-0.5-0.3-1-0.5-1.6-0.5c-1.1,0-2,0.9-2,2V51c0,1.1,0.9,2.1,2.1,2.1h0.1c0.6,0,1.1-0.1,1.7-0.4v2
		c-0.7,0.3-1.4,0.4-2.1,0.4c-2.3,0.2-4.2-1.5-4.4-3.8v-0.4c-0.1-2.3,1.7-4.2,4-4.2h0.4c0.7,0,1.4,0.1,2,0.5
		C84.1,47.2,83.9,49.3,83.9,49.3z"/>
</g>
</svg>
